<?xml version="1.0" encoding="utf-8"?>
<svg viewBox="0.579 16.783 516.203 451.967" xmlns="http://www.w3.org/2000/svg">
  <path d="M 66.102 243.056 L 66.102 147.056 L 226.102 147.056 L 226.102 243.056 L 66.102 243.056 Z M 66.102 307.056 L 226.102 307.056 L 226.102 403.056 L 66.102 403.056 L 66.102 307.056 Z M 290.102 403.056 L 290.102 307.056 L 450.102 307.056 L 450.102 403.056 L 290.102 403.056 Z M 450.102 243.056 L 290.102 243.056 L 290.102 147.056 L 450.102 147.056 L 450.102 243.056 Z M 66.102 19.056 C 30.802 19.056 2.102 47.756 2.102 83.056 L 2.102 403.056 C 2.102 438.356 30.802 467.056 66.102 467.056 L 450.102 467.056 C 485.402 467.056 514.102 438.356 514.102 403.056 L 514.102 83.056 C 514.102 47.756 485.402 19.056 450.102 19.056 L 66.102 19.056 Z" style="fill: rgb(56, 95, 115);"/>
</svg>